<svg width="29" height="27" viewBox="0 0 29 27" fill="none" xmlns="http://www.w3.org/2000/svg">
<path d="M29 13.4865C29 6.04125 22.504 0 14.5 0C6.496 0 0 6.04125 0 13.4865C0 17.5871 2.001 21.2827 5.133 23.7634C5.162 23.7904 5.191 23.7904 5.191 23.8174C5.452 24.0064 5.713 24.1954 6.003 24.3844C6.148 24.4654 6.264 24.5717 6.409 24.6797C8.80525 26.1923 11.6339 27.0006 14.529 27C17.4241 27.0006 20.2528 26.1923 22.649 24.6797C22.794 24.5987 22.91 24.4924 23.055 24.4097C23.316 24.2224 23.606 24.0334 23.867 23.8444C23.896 23.8174 23.925 23.8174 23.925 23.7904C26.999 21.2811 29 17.5871 29 13.4865ZM14.5 25.3007C11.774 25.3007 9.28 24.4907 7.221 23.1424C7.25 22.9264 7.308 22.7121 7.366 22.4961C7.5388 21.9107 7.79224 21.3486 8.12 20.8237C8.439 20.3108 8.816 19.8517 9.28 19.4468C9.715 19.0417 10.237 18.6654 10.759 18.3684C11.31 18.0714 11.89 17.8554 12.528 17.6934C13.171 17.5321 13.8341 17.4509 14.5 17.4521C16.4768 17.4391 18.381 18.1451 19.807 19.4198C20.474 20.0408 20.996 20.7698 21.373 21.6051C21.576 22.0911 21.721 22.6041 21.808 23.1424C19.6678 24.5433 17.1162 25.2968 14.5 25.3007ZM10.063 12.8132C9.80748 12.2685 9.67898 11.6795 9.686 11.0852C9.686 10.4929 9.802 9.89888 10.063 9.35888C10.324 8.81888 10.672 8.33456 11.107 7.92956C11.542 7.52456 12.064 7.20225 12.644 6.95925C13.224 6.71625 13.862 6.60825 14.5 6.60825C15.167 6.60825 15.776 6.71625 16.356 6.95925C16.936 7.20225 17.458 7.52625 17.893 7.92956C18.328 8.33456 18.676 8.82056 18.937 9.35888C19.198 9.89888 19.314 10.4929 19.314 11.0852C19.314 11.7062 19.198 12.2732 18.937 12.8115C18.6851 13.3435 18.3314 13.8284 17.893 14.2425C17.4481 14.65 16.9273 14.9788 16.356 15.2128C15.1576 15.6713 13.8134 15.6713 12.615 15.2128C12.0437 14.9788 11.5229 14.65 11.078 14.2425C10.639 13.8344 10.2937 13.3476 10.063 12.8115V12.8132ZM23.519 21.7671C23.519 21.7131 23.49 21.6861 23.49 21.6321C23.2048 20.7873 22.7844 19.9875 22.243 19.2594C21.7011 18.526 21.0351 17.8792 20.271 17.3441C19.6874 16.9354 19.0549 16.5911 18.386 16.3181C18.6903 16.1312 18.9722 15.9146 19.227 15.6718C19.6594 15.2744 20.0391 14.8303 20.358 14.3488C21.0003 13.3664 21.332 12.2352 21.315 11.0852C21.324 10.2339 21.1463 9.38979 20.793 8.60456C20.4441 7.84795 19.942 7.161 19.314 6.58125C18.6869 6.00755 17.949 5.5495 17.139 5.23125C16.2942 4.90285 15.3864 4.73807 14.471 4.74694C13.5554 4.7386 12.6477 4.90396 11.803 5.23294C10.986 5.5505 10.2463 6.01827 9.628 6.60825C9.01183 7.19143 8.51983 7.87796 8.178 8.63156C7.82465 9.41679 7.64703 10.2609 7.656 11.1122C7.656 11.7062 7.743 12.2732 7.917 12.8115C8.091 13.3785 8.323 13.8915 8.642 14.3758C8.932 14.8618 9.338 15.2938 9.773 15.6988C10.034 15.9418 10.324 16.1561 10.643 16.3451C9.97208 16.6254 9.3393 16.9788 8.758 17.3981C8.004 17.9381 7.337 18.5844 6.786 19.2864C6.23909 20.0114 5.81827 20.8121 5.539 21.6591C5.51 21.7131 5.51 21.7671 5.51 21.7941C3.219 19.6357 1.798 16.7231 1.798 13.4865C1.798 6.98625 7.511 1.67231 14.5 1.67231C21.489 1.67231 27.202 6.98625 27.202 13.4865C27.1982 16.5914 25.874 19.5686 23.519 21.7671Z" fill="#999999"/>
</svg>
